<?xml version="1.0" standalone="no"?>
<!DOCTYPE svg PUBLIC "-//W3C//DTD SVG 20010904//EN"
 "http://www.w3.org/TR/2001/REC-SVG-20010904/DTD/svg10.dtd">
<svg version="1.0" xmlns="http://www.w3.org/2000/svg"
 width="176.000000pt" height="36.000000pt" viewBox="0 0 176.000000 36.000000"
 preserveAspectRatio="xMidYMid meet">

<g transform="translate(0.000000,36.000000) scale(0.100000,-0.100000)"
fill="#000000" stroke="none">
<path d="M595 353 c120 -7 265 -7 265 0 0 4 -71 6 -157 5 -87 -1 -135 -3 -108
-5z"/>
<path d="M958 353 c8 -3 12 -30 12 -84 l0 -79 43 1 c23 1 56 5 72 9 l30 8 -27
1 c-27 1 -28 3 -28 51 l0 50 80 0 80 0 0 -40 c0 -35 4 -42 26 -51 15 -5 29 -7
32 -4 3 3 0 5 -6 5 -20 0 -13 15 11 25 29 13 33 49 8 74 -25 25 -15 28 17 5
12 -8 22 -11 22 -6 0 16 -49 32 -82 27 -26 -4 -29 -3 -13 4 14 7 -30 10 -135
10 -85 -1 -149 -3 -142 -6z m55 -30 c-7 -2 -19 -2 -25 0 -7 3 -2 5 12 5 14 0
19 -2 13 -5z m150 0 c-7 -2 -21 -2 -30 0 -10 3 -4 5 12 5 17 0 24 -2 18 -5z"/>
<path d="M518 343 c7 -3 16 -2 19 1 4 3 -2 6 -13 5 -11 0 -14 -3 -6 -6z"/>
<path d="M890 245 l0 -95 158 1 c86 0 165 3 174 7 10 4 -59 5 -153 4 l-170 -4
3 91 c2 50 0 91 -4 91 -5 0 -8 -43 -8 -95z"/>
<path d="M432 314 c-18 -12 -22 -25 -22 -69 0 -47 3 -57 25 -71 13 -9 30 -14
37 -11 9 4 7 6 -4 6 -31 2 -48 30 -48 81 0 44 3 51 28 64 15 8 22 15 17 16 -6
0 -21 -7 -33 -16z"/>
<path d="M587 320 c-65 -5 -120 -9 -122 -11 -2 -2 -7 -17 -10 -32 -6 -23 -4
-29 14 -34 11 -3 18 -9 15 -14 -3 -5 4 -9 15 -9 23 0 29 -25 9 -34 -7 -2 50
-4 127 -3 l140 2 3 73 3 72 -38 -1 c-21 -1 -91 -5 -156 -9z m103 -69 l0 -48
-40 -6 c-22 -3 -58 -3 -80 0 -39 6 -40 6 -40 48 0 23 3 45 7 48 3 4 39 7 80 7
l73 0 0 -49z m63 -48 c-7 -2 -21 -2 -30 0 -10 3 -4 5 12 5 17 0 24 -2 18 -5z"/>
<path d="M600 255 c0 -33 2 -35 35 -35 33 0 35 2 35 35 0 33 -2 35 -35 35 -33
0 -35 -2 -35 -35z"/>
<path d="M853 305 c-3 -9 -3 -40 -1 -70 3 -30 1 -56 -4 -59 -5 -2 -3 -3 3 -2
8 1 13 27 13 74 1 74 -1 83 -11 57z"/>
<path d="M1333 265 c0 -22 2 -30 4 -17 2 12 2 30 0 40 -3 9 -5 -1 -4 -23z"/>
<path d="M1080 255 c0 -33 2 -35 35 -35 33 0 35 2 35 35 0 33 -2 35 -35 35
-33 0 -35 -2 -35 -35z"/>
<path d="M1320 213 c0 -5 -10 -15 -22 -21 -13 -6 -18 -11 -12 -11 16 -1 50 27
41 35 -4 4 -7 3 -7 -3z"/>
<path d="M568 153 c46 -2 118 -2 160 0 42 1 5 3 -83 3 -88 0 -123 -2 -77 -3z"/>
<path d="M49 123 c-20 -5 -32 -75 -19 -107 6 -15 9 -6 9 35 1 68 3 69 134 69
107 0 127 -9 127 -55 0 -35 -4 -38 -85 -59 -11 -3 -1 -4 23 -2 56 5 72 20 72
66 0 30 -5 39 -25 48 -24 11 -200 15 -236 5z"/>
<path d="M395 115 c-22 -8 -41 -15 -42 -15 -2 0 -2 -24 -1 -52 l2 -53 3 47 c4
43 6 47 44 62 23 9 69 16 109 16 58 0 74 -4 91 -21 14 -14 19 -28 15 -42 -3
-12 -6 -28 -6 -34 0 -7 -7 -13 -17 -13 -9 0 -14 -3 -10 -6 3 -3 15 -3 27 1 18
6 21 13 18 53 -2 38 -8 49 -28 59 -34 17 -155 16 -205 -2z"/>
<path d="M688 123 c-10 -2 -18 -9 -18 -15 0 -14 72 -108 83 -108 11 0 2 15
-40 66 -33 41 -33 42 -11 48 40 10 71 7 90 -11 17 -15 20 -15 51 1 17 10 45
16 60 14 l28 -3 -35 -50 c-20 -27 -44 -53 -53 -57 -13 -5 -14 -7 -3 -7 8 0 20
3 26 7 18 12 74 94 74 109 0 16 -66 18 -106 3 -19 -8 -30 -8 -38 0 -10 10 -75
12 -108 3z"/>
<path d="M993 120 c-20 -8 -23 -17 -23 -65 0 -30 4 -55 10 -55 6 0 7 18 3 46
-7 56 9 74 69 74 l38 0 0 -54 c0 -43 -4 -56 -17 -60 -14 -4 -14 -4 2 -3 17 2
20 11 23 65 l3 62 -43 -1 c-24 0 -53 -4 -65 -9z"/>
<path d="M1158 123 c-15 -4 -18 -15 -16 -66 l2 -62 3 56 c5 68 6 69 136 69
107 0 127 -9 127 -54 0 -34 -16 -47 -75 -59 -11 -3 -3 -3 18 -2 51 4 67 20 67
66 0 33 -4 41 -26 49 -25 10 -202 12 -236 3z"/>
<path d="M1478 123 c-22 -6 -25 -18 -17 -78 l6 -50 1 56 c2 42 6 58 18 63 9 3
65 6 126 6 82 0 109 -3 106 -12 -3 -7 -15 -15 -29 -19 -16 -5 -18 -7 -6 -8 9
-1 17 -7 17 -15 0 -10 -16 -17 -47 -21 -78 -10 -83 -15 -11 -9 69 5 99 -8 56
-25 l-23 -10 23 0 c25 -1 38 21 26 41 -13 20 -15 48 -4 48 6 0 10 9 10 20 0
19 -6 20 -117 19 -65 -1 -125 -3 -135 -6z"/>
<path d="M462 41 c2 -20 -4 -30 -19 -34 -10 -3 1 -5 23 -6 30 -1 44 4 48 15 8
22 9 21 -23 26 -17 2 -30 2 -29 -1z"/>
</g>
</svg>
